<?xml version="1.0" encoding="utf-8" standalone="yes"?>
<!DOCTYPE svg PUBLIC "-//W3C//DTD SVG 1.1//EN" "http://www.w3.org/Graphics/SVG/1.1/DTD/svg11.dtd">
<svg xmlns:xlink="http://www.w3.org/1999/xlink" viewBox="0 0 1630 258" class="barcode-canvas" version="1.1" style="shape-rendering:crispEdges;" xmlns="http://www.w3.org/2000/svg">
  <g text-rendering="geometricPrecision">
    <rect x="0" y="0" width="1630" height="258" fill="#ffffff" />
    <rect x="14" y="7" width="7" height="170" fill="#000000" />
    <rect x="49" y="7" width="7" height="170" fill="#000000" />
    <rect x="63" y="7" width="14" height="170" fill="#000000" />
    <rect x="91" y="7" width="21" height="170" fill="#000000" />
    <rect x="133" y="7" width="7" height="170" fill="#000000" />
    <rect x="147" y="7" width="56" height="170" fill="#000000" />
    <rect x="231" y="7" width="7" height="170" fill="#000000" />
    <rect x="245" y="7" width="7" height="170" fill="#000000" />
    <rect x="259" y="7" width="14" height="170" fill="#000000" />
    <rect x="308" y="7" width="7" height="170" fill="#000000" />
    <rect x="336" y="7" width="7" height="170" fill="#000000" />
    <rect x="364" y="7" width="14" height="170" fill="#000000" />
    <rect x="385" y="7" width="35" height="170" fill="#000000" />
    <rect x="427" y="7" width="14" height="170" fill="#000000" />
    <rect x="448" y="7" width="7" height="170" fill="#000000" />
    <rect x="483" y="7" width="7" height="170" fill="#000000" />
    <rect x="497" y="7" width="35" height="170" fill="#000000" />
    <rect x="574" y="7" width="14" height="170" fill="#000000" />
    <rect x="609" y="7" width="14" height="170" fill="#000000" />
    <rect x="637" y="7" width="7" height="170" fill="#000000" />
    <rect x="651" y="7" width="14" height="170" fill="#000000" />
    <rect x="686" y="7" width="21" height="170" fill="#000000" />
    <rect x="721" y="7" width="7" height="170" fill="#000000" />
    <rect x="735" y="7" width="28" height="170" fill="#000000" />
    <rect x="770" y="7" width="21" height="170" fill="#000000" />
    <rect x="805" y="7" width="21" height="170" fill="#000000" />
    <rect x="847" y="7" width="42" height="170" fill="#000000" />
    <rect x="917" y="7" width="7" height="170" fill="#000000" />
    <rect x="931" y="7" width="35" height="170" fill="#000000" />
    <rect x="994" y="7" width="14" height="170" fill="#000000" />
    <rect x="1022" y="7" width="7" height="170" fill="#000000" />
    <rect x="1036" y="7" width="7" height="170" fill="#000000" />
    <rect x="1050" y="7" width="7" height="170" fill="#000000" />
    <rect x="1071" y="7" width="7" height="170" fill="#000000" />
    <rect x="1099" y="7" width="21" height="170" fill="#000000" />
    <rect x="1127" y="7" width="21" height="170" fill="#000000" />
    <rect x="1169" y="7" width="7" height="170" fill="#000000" />
    <rect x="1183" y="7" width="56" height="170" fill="#000000" />
    <rect x="1253" y="7" width="21" height="170" fill="#000000" />
    <rect x="1281" y="7" width="7" height="170" fill="#000000" />
    <rect x="1323" y="7" width="7" height="170" fill="#000000" />
    <rect x="1337" y="7" width="21" height="170" fill="#000000" />
    <rect x="1372" y="7" width="21" height="170" fill="#000000" />
    <rect x="1421" y="7" width="14" height="170" fill="#000000" />
    <rect x="1442" y="7" width="7" height="170" fill="#000000" />
    <rect x="1463" y="7" width="21" height="170" fill="#000000" />
    <rect x="1491" y="7" width="21" height="170" fill="#000000" />
    <rect x="1533" y="7" width="28" height="170" fill="#000000" />
    <rect x="1603" y="7" width="7" height="170" fill="#000000" />
    <rect x="1617" y="7" width="7" height="170" fill="#000000" />
    <g transform="translate(532, 180)">
      <path d="M 3.906 46.438 C 3.906 43.574 4.117 40.836 4.547 38.219 C 4.984 35.605 5.66 33.094 6.578 30.688 C 7.504 28.273 8.688 25.93 10.125 23.656 C 11.562 21.387 13.273 19.168 15.266 17 L 20.609 17 C 18.68 19.168 17.016 21.391 15.609 23.672 C 14.203 25.953 13.047 28.309 12.141 30.734 C 11.242 33.152 10.57 35.668 10.125 38.281 C 9.688 40.898 9.469 43.637 9.469 46.5 C 9.469 49.367 9.688 52.109 10.125 54.734 C 10.57 57.352 11.242 59.871 12.141 62.297 C 13.047 64.723 14.203 67.07 15.609 69.344 C 17.016 71.625 18.68 73.844 20.609 76 L 15.266 76 C 13.273 73.844 11.562 71.625 10.125 69.344 C 8.688 67.07 7.504 64.734 6.578 62.328 C 5.66 59.914 4.984 57.402 4.547 54.797 C 4.117 52.195 3.906 49.449 3.906 46.562 Z M 53.578 41.5 C 53.578 45.617 53.18 49.074 52.391 51.875 C 51.598 54.68 50.52 56.945 49.156 58.672 C 47.789 60.391 46.188 61.625 44.344 62.375 C 42.5 63.125 40.531 63.5 38.438 63.5 C 36.332 63.5 34.363 63.125 32.531 62.375 C 30.707 61.625 29.125 60.398 27.781 58.688 C 26.438 56.969 25.379 54.711 24.609 51.906 C 23.848 49.105 23.469 45.637 23.469 41.5 C 23.469 37.199 23.848 33.637 24.609 30.812 C 25.379 27.992 26.441 25.742 27.797 24.062 C 29.148 22.375 30.75 21.195 32.594 20.516 C 34.438 19.84 36.445 19.5 38.625 19.5 C 40.695 19.5 42.641 19.84 44.453 20.516 C 46.266 21.195 47.848 22.375 49.203 24.062 C 50.555 25.742 51.625 27.992 52.406 30.812 C 53.188 33.637 53.578 37.199 53.578 41.5 Z M 47.953 41.5 C 47.953 38.125 47.742 35.312 47.328 33.062 C 46.922 30.812 46.316 29.023 45.516 27.688 C 44.711 26.344 43.734 25.398 42.578 24.844 C 41.422 24.281 40.102 24 38.625 24 C 37.062 24 35.688 24.289 34.5 24.859 C 33.312 25.422 32.312 26.371 31.5 27.703 C 30.695 29.039 30.086 30.828 29.672 33.078 C 29.266 35.328 29.062 38.137 29.062 41.5 C 29.062 44.773 29.27 47.527 29.688 49.766 C 30.113 51.996 30.727 53.793 31.531 55.156 C 32.344 56.512 33.332 57.484 34.5 58.078 C 35.676 58.672 37.008 58.969 38.5 58.969 C 39.957 58.969 41.27 58.672 42.438 58.078 C 43.602 57.484 44.594 56.512 45.406 55.156 C 46.219 53.793 46.844 51.996 47.281 49.766 C 47.727 47.527 47.953 44.773 47.953 41.5 Z M 60.797 63 L 60.797 58.281 L 71.844 58.281 L 71.844 25.25 L 62.062 32.156 L 62.062 26.984 L 72.297 20 L 77.406 20 L 77.406 58.281 L 87.969 58.281 L 87.969 63 Z M 108.078 46.562 C 108.078 49.449 107.859 52.195 107.422 54.797 C 106.992 57.402 106.316 59.914 105.391 62.328 C 104.473 64.734 103.297 67.07 101.859 69.344 C 100.422 71.625 98.707 73.844 96.719 76 L 91.375 76 C 93.301 73.844 94.961 71.625 96.359 69.344 C 97.766 67.07 98.922 64.723 99.828 62.297 C 100.734 59.871 101.406 57.352 101.844 54.734 C 102.281 52.109 102.5 49.367 102.5 46.5 C 102.5 43.637 102.281 40.898 101.844 38.281 C 101.406 35.668 100.734 33.152 99.828 30.734 C 98.922 28.309 97.766 25.953 96.359 23.672 C 94.961 21.391 93.301 19.168 91.375 17 L 96.719 17 C 98.707 19.168 100.422 21.387 101.859 23.656 C 103.297 25.93 104.473 28.273 105.391 30.688 C 106.316 33.094 106.992 35.605 107.422 38.219 C 107.859 40.836 108.078 43.574 108.078 46.438 Z M 116.797 63 L 116.797 58.281 L 127.844 58.281 L 127.844 25.25 L 118.062 32.156 L 118.062 26.984 L 128.297 20 L 133.406 20 L 133.406 58.281 L 143.969 58.281 L 143.969 63 Z M 150.172 63 L 150.172 59.078 C 151.211 56.715 152.488 54.633 154 52.828 C 155.508 51.016 157.094 49.383 158.75 47.922 C 160.414 46.453 162.062 45.094 163.688 43.844 C 165.32 42.586 166.797 41.328 168.109 40.078 C 169.422 38.82 170.477 37.508 171.281 36.141 C 172.094 34.766 172.5 33.211 172.5 31.469 C 172.5 30.25 172.312 29.184 171.938 28.266 C 171.57 27.352 171.039 26.578 170.344 25.953 C 169.645 25.32 168.805 24.844 167.828 24.531 C 166.859 24.219 165.781 24.062 164.594 24.062 C 163.488 24.062 162.445 24.215 161.469 24.516 C 160.5 24.82 159.633 25.277 158.875 25.891 C 158.113 26.496 157.492 27.246 157.016 28.141 C 156.535 29.039 156.223 30.09 156.078 31.297 L 150.422 30.766 C 150.598 29.215 151.023 27.762 151.703 26.406 C 152.379 25.043 153.312 23.844 154.5 22.812 C 155.695 21.781 157.129 20.977 158.797 20.391 C 160.461 19.797 162.395 19.5 164.594 19.5 C 166.75 19.5 168.664 19.758 170.344 20.266 C 172.031 20.766 173.453 21.512 174.609 22.5 C 175.766 23.492 176.648 24.715 177.266 26.172 C 177.879 27.633 178.188 29.312 178.188 31.219 C 178.188 32.656 177.926 34.027 177.406 35.328 C 176.883 36.621 176.188 37.855 175.312 39.031 C 174.445 40.211 173.438 41.344 172.281 42.438 C 171.133 43.523 169.938 44.586 168.688 45.625 C 167.438 46.668 166.176 47.703 164.906 48.734 C 163.633 49.758 162.438 50.781 161.312 51.812 C 160.195 52.844 159.195 53.891 158.312 54.953 C 157.438 56.016 156.754 57.125 156.266 58.281 L 178.875 58.281 L 178.875 63 Z M 214.266 50.797 C 214.266 52.809 213.941 54.605 213.297 56.188 C 212.648 57.762 211.707 59.09 210.469 60.172 C 209.227 61.258 207.691 62.086 205.859 62.656 C 204.023 63.219 201.926 63.5 199.562 63.5 C 196.875 63.5 194.613 63.164 192.781 62.5 C 190.945 61.824 189.43 60.934 188.234 59.828 C 187.047 58.727 186.156 57.465 185.562 56.047 C 184.969 54.621 184.582 53.152 184.406 51.641 L 190.125 51.125 C 190.289 52.281 190.594 53.34 191.031 54.297 C 191.469 55.258 192.066 56.078 192.828 56.766 C 193.586 57.445 194.52 57.969 195.625 58.344 C 196.727 58.719 198.039 58.906 199.562 58.906 C 202.352 58.906 204.539 58.215 206.125 56.828 C 207.719 55.434 208.516 53.359 208.516 50.609 C 208.516 48.996 208.16 47.699 207.453 46.719 C 206.742 45.73 205.859 44.961 204.797 44.406 C 203.742 43.844 202.598 43.469 201.359 43.281 C 200.117 43.094 198.977 43 197.938 43 L 194.797 43 L 194.797 38.203 L 197.812 38.203 C 198.852 38.203 199.938 38.102 201.062 37.891 C 202.195 37.684 203.227 37.312 204.156 36.781 C 205.094 36.25 205.863 35.531 206.469 34.625 C 207.07 33.719 207.375 32.559 207.375 31.141 C 207.375 28.965 206.691 27.242 205.328 25.969 C 203.961 24.699 201.938 24.062 199.25 24.062 C 196.812 24.062 194.836 24.656 193.328 25.844 C 191.828 27.023 190.953 28.684 190.703 30.828 L 185.141 30.422 C 185.359 28.578 185.879 26.977 186.703 25.609 C 187.523 24.234 188.566 23.102 189.828 22.203 C 191.086 21.297 192.523 20.621 194.141 20.172 C 195.766 19.727 197.488 19.5 199.312 19.5 C 201.738 19.5 203.82 19.793 205.562 20.375 C 207.301 20.949 208.723 21.734 209.828 22.734 C 210.941 23.734 211.758 24.906 212.281 26.25 C 212.801 27.586 213.062 29.012 213.062 30.531 C 213.062 31.762 212.891 32.906 212.547 33.969 C 212.203 35.031 211.66 35.992 210.922 36.844 C 210.18 37.688 209.238 38.418 208.094 39.031 C 206.957 39.637 205.594 40.102 204 40.422 L 204 40.547 C 205.738 40.727 207.254 41.121 208.547 41.734 C 209.836 42.352 210.906 43.117 211.75 44.031 C 212.594 44.938 213.223 45.977 213.641 47.141 C 214.055 48.297 214.266 49.516 214.266 50.797 Z M 244.094 53 L 244.094 63 L 238.875 63 L 238.875 53 L 218.453 53 L 218.453 48.688 L 238.281 20 L 244.094 20 L 244.094 48.625 L 250.188 48.625 L 250.188 53 Z M 238.875 26.125 C 238.832 26.23 238.727 26.43 238.562 26.719 C 238.395 27.012 238.207 27.34 238 27.703 C 237.801 28.07 237.594 28.445 237.375 28.828 C 237.164 29.203 236.977 29.512 236.812 29.75 L 225.703 45.969 C 225.598 46.137 225.445 46.352 225.25 46.609 C 225.062 46.871 224.863 47.141 224.656 47.422 C 224.457 47.703 224.254 47.977 224.047 48.234 C 223.836 48.496 223.672 48.625 223.547 48.625 L 238.875 48.625 Z M 284.391 48.656 C 284.391 50.844 284.062 52.852 283.406 54.672 C 282.75 56.496 281.773 58.062 280.484 59.375 C 279.191 60.68 277.586 61.695 275.672 62.422 C 273.754 63.141 271.535 63.5 269.016 63.5 C 266.734 63.5 264.742 63.234 263.047 62.703 C 261.359 62.172 259.93 61.438 258.766 60.5 C 257.598 59.555 256.672 58.449 255.984 57.188 C 255.297 55.93 254.805 54.574 254.516 53.125 L 260.125 52.484 C 260.344 53.309 260.656 54.109 261.062 54.891 C 261.477 55.672 262.039 56.367 262.75 56.969 C 263.457 57.574 264.328 58.059 265.359 58.422 C 266.398 58.789 267.66 58.969 269.141 58.969 C 270.566 58.969 271.863 58.746 273.031 58.297 C 274.207 57.852 275.207 57.195 276.031 56.328 C 276.863 55.465 277.504 54.402 277.953 53.141 C 278.41 51.871 278.641 50.418 278.641 48.781 C 278.641 47.43 278.422 46.188 277.984 45.062 C 277.555 43.93 276.941 42.953 276.141 42.141 C 275.348 41.32 274.367 40.68 273.203 40.219 C 272.047 39.762 270.727 39.531 269.25 39.531 C 268.332 39.531 267.484 39.617 266.703 39.781 C 265.922 39.949 265.195 40.18 264.531 40.469 C 263.863 40.762 263.258 41.102 262.719 41.484 C 262.176 41.871 261.672 42.273 261.203 42.688 L 255.781 42.688 L 257.234 20 L 281.875 20 L 281.875 24.719 L 262.281 24.719 L 261.438 37.781 C 262.426 37.023 263.656 36.371 265.125 35.828 C 266.602 35.277 268.359 35 270.391 35 C 272.547 35 274.484 35.336 276.203 36 C 277.93 36.668 279.398 37.605 280.609 38.812 C 281.816 40.023 282.75 41.465 283.406 43.141 C 284.062 44.809 284.391 46.648 284.391 48.656 Z M 319.266 48.625 C 319.266 50.812 318.961 52.824 318.359 54.656 C 317.754 56.48 316.863 58.047 315.688 59.359 C 314.508 60.664 313.047 61.68 311.297 62.406 C 309.555 63.133 307.547 63.5 305.266 63.5 C 302.742 63.5 300.539 63.023 298.656 62.078 C 296.77 61.133 295.203 59.762 293.953 57.969 C 292.703 56.18 291.766 53.984 291.141 51.391 C 290.516 48.789 290.203 45.824 290.203 42.5 C 290.203 38.699 290.555 35.367 291.266 32.5 C 291.973 29.625 292.992 27.227 294.328 25.297 C 295.66 23.371 297.285 21.922 299.203 20.953 C 301.117 19.984 303.285 19.5 305.703 19.5 C 307.18 19.5 308.566 19.652 309.859 19.953 C 311.148 20.246 312.32 20.727 313.375 21.391 C 314.438 22.059 315.363 22.938 316.156 24.031 C 316.957 25.125 317.594 26.465 318.062 28.047 L 312.781 28.938 C 312.207 27.199 311.289 25.945 310.031 25.172 C 308.77 24.391 307.305 24 305.641 24 C 304.117 24 302.742 24.344 301.516 25.031 C 300.285 25.719 299.238 26.746 298.375 28.109 C 297.52 29.477 296.859 31.188 296.391 33.25 C 295.93 35.305 295.703 37.703 295.703 40.453 C 296.711 38.578 298.129 37.156 299.953 36.188 C 301.773 35.211 303.863 34.719 306.219 34.719 C 308.188 34.719 309.973 35.039 311.578 35.672 C 313.18 36.309 314.551 37.23 315.688 38.438 C 316.82 39.648 317.703 41.117 318.328 42.844 C 318.953 44.562 319.266 46.492 319.266 48.625 Z M 313.641 48.875 C 313.641 47.375 313.453 46.016 313.078 44.797 C 312.711 43.578 312.16 42.543 311.422 41.688 C 310.68 40.824 309.77 40.164 308.688 39.703 C 307.602 39.234 306.344 39 304.906 39 C 303.895 39 302.875 39.152 301.844 39.453 C 300.82 39.746 299.895 40.23 299.062 40.906 C 298.238 41.574 297.566 42.461 297.047 43.562 C 296.523 44.656 296.266 45.984 296.266 47.547 C 296.266 49.164 296.469 50.668 296.875 52.062 C 297.281 53.449 297.867 54.664 298.641 55.703 C 299.41 56.734 300.336 57.547 301.422 58.141 C 302.516 58.734 303.738 59.031 305.094 59.031 C 306.426 59.031 307.617 58.805 308.672 58.344 C 309.723 57.875 310.617 57.203 311.359 56.328 C 312.098 55.453 312.66 54.387 313.047 53.125 C 313.441 51.867 313.641 50.449 313.641 48.875 Z M 353.875 24.5 C 351.695 27.781 349.695 30.945 347.875 33.984 C 346.051 37.027 344.484 40.09 343.172 43.172 C 341.859 46.246 340.836 49.406 340.109 52.656 C 339.379 55.898 339.016 59.344 339.016 63 L 333.234 63 C 333.234 59.562 333.641 56.199 334.453 52.906 C 335.273 49.605 336.383 46.367 337.781 43.188 C 339.176 40 340.797 36.875 342.641 33.812 C 344.484 30.742 346.441 27.711 348.516 24.719 L 325.234 24.719 L 325.234 20 L 353.875 20 Z M 389.297 50.797 C 389.297 52.652 389.004 54.355 388.422 55.906 C 387.836 57.449 386.945 58.781 385.75 59.906 C 384.551 61.031 383.016 61.914 381.141 62.547 C 379.273 63.18 377.07 63.5 374.531 63.5 C 371.988 63.5 369.789 63.18 367.938 62.547 C 366.082 61.914 364.539 61.039 363.312 59.922 C 362.094 58.809 361.191 57.48 360.609 55.938 C 360.023 54.387 359.734 52.695 359.734 50.859 C 359.734 49.289 359.973 47.887 360.453 46.656 C 360.941 45.418 361.586 44.355 362.391 43.469 C 363.203 42.574 364.125 41.855 365.156 41.312 C 366.195 40.773 367.27 40.406 368.375 40.219 L 368.375 40.094 C 367.164 39.812 366.082 39.367 365.125 38.75 C 364.176 38.137 363.379 37.398 362.734 36.531 C 362.086 35.656 361.594 34.695 361.25 33.641 C 360.914 32.59 360.75 31.477 360.75 30.297 C 360.75 28.82 361.039 27.43 361.625 26.125 C 362.207 24.824 363.07 23.68 364.219 22.688 C 365.375 21.699 366.801 20.922 368.5 20.359 C 370.207 19.789 372.176 19.5 374.406 19.5 C 376.77 19.5 378.816 19.789 380.547 20.359 C 382.273 20.934 383.707 21.715 384.844 22.703 C 385.988 23.695 386.836 24.844 387.391 26.156 C 387.941 27.469 388.219 28.871 388.219 30.359 C 388.219 31.508 388.047 32.609 387.703 33.672 C 387.367 34.727 386.879 35.684 386.234 36.547 C 385.586 37.414 384.785 38.152 383.828 38.766 C 382.879 39.371 381.781 39.793 380.531 40.031 L 380.531 40.156 C 381.781 40.367 382.938 40.742 384 41.281 C 385.07 41.824 386 42.543 386.781 43.438 C 387.562 44.324 388.176 45.387 388.625 46.625 C 389.07 47.855 389.297 49.246 389.297 50.797 Z M 382.469 30.672 C 382.469 29.641 382.328 28.695 382.047 27.828 C 381.773 26.965 381.32 26.227 380.688 25.609 C 380.051 24.984 379.219 24.5 378.188 24.156 C 377.164 23.805 375.906 23.625 374.406 23.625 C 372.957 23.625 371.727 23.805 370.719 24.156 C 369.719 24.5 368.895 24.984 368.25 25.609 C 367.602 26.227 367.133 26.965 366.844 27.828 C 366.551 28.695 366.406 29.641 366.406 30.672 C 366.406 31.508 366.52 32.355 366.75 33.219 C 366.977 34.086 367.391 34.871 367.984 35.578 C 368.578 36.289 369.395 36.871 370.438 37.328 C 371.488 37.777 372.832 38 374.469 38 C 376.219 38 377.617 37.777 378.672 37.328 C 379.723 36.871 380.531 36.289 381.094 35.578 C 381.664 34.871 382.035 34.086 382.203 33.219 C 382.379 32.355 382.469 31.508 382.469 30.672 Z M 383.547 50.281 C 383.547 49.23 383.398 48.219 383.109 47.25 C 382.828 46.273 382.336 45.414 381.641 44.672 C 380.941 43.922 380.004 43.32 378.828 42.859 C 377.648 42.391 376.176 42.156 374.406 42.156 C 372.789 42.156 371.41 42.391 370.266 42.859 C 369.129 43.32 368.207 43.93 367.5 44.688 C 366.789 45.438 366.27 46.312 365.938 47.312 C 365.613 48.305 365.453 49.328 365.453 50.391 C 365.453 51.734 365.613 52.953 365.938 54.047 C 366.27 55.141 366.797 56.086 367.516 56.875 C 368.234 57.656 369.176 58.266 370.344 58.703 C 371.52 59.133 372.938 59.344 374.594 59.344 C 376.281 59.344 377.695 59.133 378.844 58.703 C 379.988 58.266 380.91 57.656 381.609 56.875 C 382.305 56.086 382.801 55.133 383.094 54.016 C 383.395 52.902 383.547 51.656 383.547 50.281 Z M 424.047 40.656 C 424.047 44.461 423.68 47.793 422.953 50.656 C 422.234 53.523 421.195 55.906 419.844 57.812 C 418.488 59.711 416.844 61.133 414.906 62.078 C 412.969 63.023 410.785 63.5 408.359 63.5 C 406.703 63.5 405.207 63.332 403.875 63 C 402.539 62.656 401.348 62.125 400.297 61.406 C 399.254 60.688 398.363 59.75 397.625 58.594 C 396.883 57.438 396.289 56.047 395.844 54.422 L 401.141 53.578 C 401.711 55.453 402.609 56.836 403.828 57.719 C 405.047 58.594 406.586 59.031 408.453 59.031 C 409.953 59.031 411.32 58.68 412.562 57.969 C 413.801 57.262 414.859 56.199 415.734 54.781 C 416.609 53.367 417.289 51.59 417.781 49.453 C 418.27 47.32 418.535 44.812 418.578 41.938 C 418.148 42.887 417.562 43.742 416.812 44.5 C 416.062 45.25 415.207 45.887 414.25 46.406 C 413.301 46.93 412.27 47.324 411.156 47.594 C 410.051 47.867 408.938 48 407.812 48 C 405.844 48 404.062 47.656 402.469 46.969 C 400.883 46.281 399.535 45.32 398.422 44.078 C 397.316 42.828 396.461 41.328 395.859 39.578 C 395.254 37.828 394.953 35.887 394.953 33.75 C 394.953 31.555 395.273 29.574 395.922 27.812 C 396.566 26.055 397.504 24.559 398.734 23.328 C 399.961 22.102 401.473 21.156 403.266 20.5 C 405.066 19.836 407.102 19.5 409.375 19.5 C 414.195 19.5 417.848 21.262 420.328 24.781 C 422.805 28.305 424.047 33.594 424.047 40.656 Z M 418.031 35.188 C 418.031 33.648 417.836 32.195 417.453 30.828 C 417.078 29.465 416.516 28.281 415.766 27.281 C 415.016 26.273 414.086 25.477 412.984 24.891 C 411.891 24.297 410.629 24 409.203 24 C 407.867 24 406.664 24.23 405.594 24.688 C 404.531 25.148 403.629 25.797 402.891 26.641 C 402.148 27.477 401.578 28.496 401.172 29.703 C 400.773 30.914 400.578 32.262 400.578 33.75 C 400.578 35.148 400.754 36.449 401.109 37.656 C 401.473 38.867 402.016 39.914 402.734 40.797 C 403.453 41.672 404.344 42.367 405.406 42.875 C 406.477 43.375 407.723 43.625 409.141 43.625 C 410.16 43.625 411.195 43.461 412.25 43.125 C 413.312 42.793 414.266 42.281 415.109 41.594 C 415.961 40.898 416.66 40.023 417.203 38.969 C 417.754 37.906 418.031 36.648 418.031 35.188 Z M 459.578 41.5 C 459.578 45.617 459.18 49.074 458.391 51.875 C 457.598 54.68 456.52 56.945 455.156 58.672 C 453.789 60.391 452.188 61.625 450.344 62.375 C 448.5 63.125 446.531 63.5 444.438 63.5 C 442.332 63.5 440.363 63.125 438.531 62.375 C 436.707 61.625 435.125 60.398 433.781 58.688 C 432.438 56.969 431.379 54.711 430.609 51.906 C 429.848 49.105 429.469 45.637 429.469 41.5 C 429.469 37.199 429.848 33.637 430.609 30.812 C 431.379 27.992 432.441 25.742 433.797 24.062 C 435.148 22.375 436.75 21.195 438.594 20.516 C 440.438 19.84 442.445 19.5 444.625 19.5 C 446.695 19.5 448.641 19.84 450.453 20.516 C 452.266 21.195 453.848 22.375 455.203 24.062 C 456.555 25.742 457.625 27.992 458.406 30.812 C 459.188 33.637 459.578 37.199 459.578 41.5 Z M 453.953 41.5 C 453.953 38.125 453.742 35.312 453.328 33.062 C 452.922 30.812 452.316 29.023 451.516 27.688 C 450.711 26.344 449.734 25.398 448.578 24.844 C 447.422 24.281 446.102 24 444.625 24 C 443.062 24 441.688 24.289 440.5 24.859 C 439.312 25.422 438.312 26.371 437.5 27.703 C 436.695 29.039 436.086 30.828 435.672 33.078 C 435.266 35.328 435.062 38.137 435.062 41.5 C 435.062 44.773 435.27 47.527 435.688 49.766 C 436.113 51.996 436.727 53.793 437.531 55.156 C 438.344 56.512 439.332 57.484 440.5 58.078 C 441.676 58.672 443.008 58.969 444.5 58.969 C 445.957 58.969 447.27 58.672 448.438 58.078 C 449.602 57.484 450.594 56.512 451.406 55.156 C 452.219 53.793 452.844 51.996 453.281 49.766 C 453.727 47.527 453.953 44.773 453.953 41.5 Z M 466.797 63 L 466.797 58.281 L 477.844 58.281 L 477.844 25.25 L 468.062 32.156 L 468.062 26.984 L 478.297 20 L 483.406 20 L 483.406 58.281 L 493.969 58.281 L 493.969 63 Z M 500.172 63 L 500.172 59.078 C 501.211 56.715 502.488 54.633 504 52.828 C 505.508 51.016 507.094 49.383 508.75 47.922 C 510.414 46.453 512.062 45.094 513.688 43.844 C 515.32 42.586 516.797 41.328 518.109 40.078 C 519.422 38.82 520.477 37.508 521.281 36.141 C 522.094 34.766 522.5 33.211 522.5 31.469 C 522.5 30.25 522.312 29.184 521.938 28.266 C 521.57 27.352 521.039 26.578 520.344 25.953 C 519.645 25.32 518.805 24.844 517.828 24.531 C 516.859 24.219 515.781 24.062 514.594 24.062 C 513.488 24.062 512.445 24.215 511.469 24.516 C 510.5 24.82 509.633 25.277 508.875 25.891 C 508.113 26.496 507.492 27.246 507.016 28.141 C 506.535 29.039 506.223 30.09 506.078 31.297 L 500.422 30.766 C 500.598 29.215 501.023 27.762 501.703 26.406 C 502.379 25.043 503.312 23.844 504.5 22.812 C 505.695 21.781 507.129 20.977 508.797 20.391 C 510.461 19.797 512.395 19.5 514.594 19.5 C 516.75 19.5 518.664 19.758 520.344 20.266 C 522.031 20.766 523.453 21.512 524.609 22.5 C 525.766 23.492 526.648 24.715 527.266 26.172 C 527.879 27.633 528.188 29.312 528.188 31.219 C 528.188 32.656 527.926 34.027 527.406 35.328 C 526.883 36.621 526.188 37.855 525.312 39.031 C 524.445 40.211 523.438 41.344 522.281 42.438 C 521.133 43.523 519.938 44.586 518.688 45.625 C 517.438 46.668 516.176 47.703 514.906 48.734 C 513.633 49.758 512.438 50.781 511.312 51.812 C 510.195 52.844 509.195 53.891 508.312 54.953 C 507.438 56.016 506.754 57.125 506.266 58.281 L 528.875 58.281 L 528.875 63 Z M 564.266 50.797 C 564.266 52.809 563.941 54.605 563.297 56.188 C 562.648 57.762 561.707 59.09 560.469 60.172 C 559.227 61.258 557.691 62.086 555.859 62.656 C 554.023 63.219 551.926 63.5 549.562 63.5 C 546.875 63.5 544.613 63.164 542.781 62.5 C 540.945 61.824 539.43 60.934 538.234 59.828 C 537.047 58.727 536.156 57.465 535.562 56.047 C 534.969 54.621 534.582 53.152 534.406 51.641 L 540.125 51.125 C 540.289 52.281 540.594 53.34 541.031 54.297 C 541.469 55.258 542.066 56.078 542.828 56.766 C 543.586 57.445 544.52 57.969 545.625 58.344 C 546.727 58.719 548.039 58.906 549.562 58.906 C 552.352 58.906 554.539 58.215 556.125 56.828 C 557.719 55.434 558.516 53.359 558.516 50.609 C 558.516 48.996 558.16 47.699 557.453 46.719 C 556.742 45.73 555.859 44.961 554.797 44.406 C 553.742 43.844 552.598 43.469 551.359 43.281 C 550.117 43.094 548.977 43 547.938 43 L 544.797 43 L 544.797 38.203 L 547.812 38.203 C 548.852 38.203 549.938 38.102 551.062 37.891 C 552.195 37.684 553.227 37.312 554.156 36.781 C 555.094 36.25 555.863 35.531 556.469 34.625 C 557.07 33.719 557.375 32.559 557.375 31.141 C 557.375 28.965 556.691 27.242 555.328 25.969 C 553.961 24.699 551.938 24.062 549.25 24.062 C 546.812 24.062 544.836 24.656 543.328 25.844 C 541.828 27.023 540.953 28.684 540.703 30.828 L 535.141 30.422 C 535.359 28.578 535.879 26.977 536.703 25.609 C 537.523 24.234 538.566 23.102 539.828 22.203 C 541.086 21.297 542.523 20.621 544.141 20.172 C 545.766 19.727 547.488 19.5 549.312 19.5 C 551.738 19.5 553.82 19.793 555.562 20.375 C 557.301 20.949 558.723 21.734 559.828 22.734 C 560.941 23.734 561.758 24.906 562.281 26.25 C 562.801 27.586 563.062 29.012 563.062 30.531 C 563.062 31.762 562.891 32.906 562.547 33.969 C 562.203 35.031 561.66 35.992 560.922 36.844 C 560.18 37.688 559.238 38.418 558.094 39.031 C 556.957 39.637 555.594 40.102 554 40.422 L 554 40.547 C 555.738 40.727 557.254 41.121 558.547 41.734 C 559.836 42.352 560.906 43.117 561.75 44.031 C 562.594 44.938 563.223 45.977 563.641 47.141 C 564.055 48.297 564.266 49.516 564.266 50.797 Z M 567 63 " fill="#000000" shape-rendering="geometricPrecision" />
    </g>
  </g>
</svg>