<?xml version="1.0" encoding="utf-8"?>
<svg viewBox="0 0 500 500" xmlns="http://www.w3.org/2000/svg">
  <g transform="matrix(0.026605, 0, 0, -0.027437, 52.864616, 356.937439)" fill="#000000" stroke="none" style="">
    <path d="M9625 6635 c-5 -2 -41 -9 -80 -13 -99 -13 -294 -73 -400 -123 -219 -104 -400 -262 -530 -464 -77 -119 -153 -292 -175 -400 -7 -33 -19 -86 -26 -118 -8 -32 -14 -78 -14 -102 0 -24 -5 -79 -11 -122 -8 -57 -8 -112 0 -208 14 -157 49 -365 72 -420 56 -137 69 -171 69 -176 0 -14 105 -185 146 -239 51 -67 161 -181 229 -236 45 -36 210 -144 221 -144 2 0 41 -17 87 -39 160 -75 203 -82 626 -92 207 -5 437 -13 511 -18 74 -6 257 -10 405 -11 317 -1 492 -12 555 -37 182 -72 305 -190 349 -334 15 -48 14 -94 -3 -150 -24 -77 -44 -108 -125 -188 -74 -74 -154 -124 -241 -150 -22 -6 -298 -12 -735 -16 -466 -4 -715 -10 -745 -17 -118 -30 -197 -156 -165 -262 25 -82 45 -107 120 -149 39 -21 49 -22 394 -24 317 -2 355 -4 372 -19 27 -25 25 -75 -6 -104 -23 -21 -35 -23 -207 -30 -101 -4 -192 -11 -203 -16 -11 -4 -39 -20 -62 -36 -49 -33 -93 -116 -93 -175 0 -60 44 -138 98 -176 l47 -32 642 1 c710 1 754 4 978 60 115 30 141 38 223 76 46 21 85 38 88 38 2 0 35 19 72 42 315 197 495 437 620 828 14 44 30 142 47 290 7 63 16 128 20 144 4 15 2 51 -4 80 -6 28 -16 94 -21 146 -14 138 -26 211 -40 256 -33 101 -44 130 -52 139 -4 5 -8 17 -8 27 0 27 -79 169 -147 265 -164 230 -376 387 -643 477 -256 85 -261 85 -1196 78 -570 -4 -783 -2 -817 7 -66 16 -185 91 -244 154 -70 74 -123 186 -123 261 0 130 119 286 274 359 156 74 141 72 456 69 157 -1 530 -7 830 -12 308 -6 559 -6 576 -1 107 31 164 103 164 208 0 82 -44 156 -115 192 -49 25 -56 26 -305 31 -278 5 -292 9 -319 66 -9 21 -8 31 6 54 24 42 57 49 182 43 149 -8 221 7 277 59 67 62 86 123 68 217 -9 43 -74 114 -131 142 -47 23 -55 24 -438 30 -756 13 -1390 19 -1400 14z" style="fill: rgb(255, 255, 255);"/>
    <path d="M11868 6586 c-54 -20 -83 -40 -115 -83 -25 -33 -28 -44 -28 -118 0 -80 1 -83 38 -129 65 -78 94 -88 281 -90 180 -1 197 3 254 68 92 106 57 272 -72 338 -34 18 -63 22 -181 25 -103 3 -150 0 -177 -11z" style="fill: rgb(255, 255, 255);"/>
    <path d="M3080 6544 c-200 -36 -355 -129 -564 -338 -285 -284 -536 -652 -1027 -1506 -46 -80 -106 -184 -134 -232 -27 -48 -88 -153 -134 -235 -84 -147 -113 -197 -247 -428 -39 -66 -90 -154 -113 -195 -24 -41 -75 -129 -113 -195 -39 -66 -103 -176 -142 -245 -153 -264 -189 -325 -196 -335 -4 -5 -50 -84 -102 -175 -52 -91 -135 -235 -184 -320 -108 -185 -107 -184 -86 -203 28 -25 172 -93 252 -119 249 -82 365 -102 615 -102 218 0 309 11 510 64 192 50 229 64 450 170 205 98 457 325 622 560 100 143 307 492 495 835 64 116 84 145 102 145 7 0 90 -156 185 -347 312 -623 465 -869 675 -1083 397 -404 874 -450 1296 -125 82 64 211 199 286 300 162 219 266 400 539 942 262 521 327 635 459 812 143 191 284 320 431 394 257 128 507 113 853 -54 67 -32 127 -59 132 -59 16 0 -99 213 -232 427 -21 34 -38 64 -38 67 0 14 -285 479 -393 641 -45 66 -126 180 -181 253 -56 73 -114 150 -129 170 -15 20 -87 97 -160 170 -245 247 -433 345 -657 345 -147 -1 -257 -41 -395 -143 -106 -79 -156 -131 -288 -295 -16 -21 -137 -196 -137 -199 0 -2 -28 -52 -63 -112 -83 -145 -187 -358 -227 -469 -48 -130 -138 -344 -165 -390 -57 -99 -150 -175 -212 -175 -44 1 -111 36 -154 82 -48 51 -129 213 -197 393 -66 174 -95 242 -151 355 -216 433 -442 720 -688 874 -94 58 -291 98 -393 80z" style="fill: rgb(255, 255, 255);"/>
    <path d="M7782 3630 c-187 -34 -373 -141 -499 -287 -101 -118 -157 -236 -194 -408 -23 -110 -24 -187 -3 -295 36 -190 111 -336 238 -465 97 -98 159 -140 281 -188 116 -46 218 -67 330 -67 385 0 716 252 822 625 27 93 43 181 43 235 0 99 -53 298 -111 411 -66 133 -224 286 -368 358 -114 58 -214 82 -356 86 -71 2 -154 0 -183 -5z" style="fill: rgb(255, 255, 255);"/>
    <path d="M9028 2811 c-157 -33 -230 -238 -127 -355 56 -64 96 -76 263 -76 126 0 152 3 185 20 98 49 138 122 128 232 -6 65 -27 100 -89 149 l-41 33 -141 2 c-77 2 -158 -1 -178 -5z" style="fill: rgb(255, 255, 255);"/>
  </g>
</svg>